<svg xmlns="http://www.w3.org/2000/svg" ><path class="tooth-11 tooth-11-parent" d="M113.894 31.724c.056.434 3.082 4.911 3.844 6.934 1.032 2.183 2.674 4.157 7.047 5.194 3.571-.368 7.193-.447 10.199-4.033l7.39-9.405 1.347-2.992c.973-2.16-1.134-4.147-3.107-4.999l-5.35-1.197c-3.124-.168-5.197-.936-11.302.6l-5.728 1.047c-2.084.771-4.867.47-4.92 4.357.109 1.486-.585 2.858.58 4.494z" fill="none" stroke="#000" stroke-linecap="round"/><path class="tooth-11" d="M119.378 37.476l-1.31-9.175c.71 0-.8-1.852 1.867-2.679 9.737-3.182 15.364-.85 16.952-.15 1.588.7 2.967 2.613 2.662 4.623-.304 2.01-.971 2.493-1.423 3.491" fill="none" stroke="#000" stroke-linecap="round"/></svg>
